<svg xmlns="http://www.w3.org/2000/svg" viewBox="0 0 24 24" fill="#FF5500"><path d="M1.175 12.225c-.051 0-.094.046-.101.1l-.233 2.154.233 2.105c.007.058.05.098.101.098.05 0 .09-.04.099-.098l.255-2.105-.27-2.154c-.009-.06-.05-.1-.1-.1zm-.899.828c-.06 0-.091.037-.104.094L0 14.479l.172 1.308c.013.06.045.094.104.094.053 0 .09-.04.104-.094l.192-1.308-.204-1.334c-.013-.06-.05-.094-.104-.094zm1.8-1.037c-.065 0-.105.042-.112.1l-.21 2.363.225 2.313c.007.06.047.1.112.1s.105-.04.113-.1l.248-2.313-.26-2.363c-.008-.06-.048-.1-.113-.1zm.9-.769c-.073 0-.117.046-.125.107l-.195 3.132.195 3.064c.008.06.052.107.125.107.072 0 .116-.046.125-.107l.22-3.064-.22-3.132c-.009-.06-.053-.107-.125-.107zm.9-.625c-.08 0-.127.05-.133.114l-.18 3.757.18 3.622c.006.063.053.114.133.114s.127-.05.134-.114l.2-3.622-.2-3.757c-.007-.064-.054-.114-.134-.114zm.893-.595c-.088 0-.139.054-.142.12l-.166 4.352.166 4.156c.003.066.054.12.142.12.087 0 .138-.054.142-.12l.186-4.156-.186-4.352c-.004-.066-.055-.12-.142-.12zm.9-.412c-.096 0-.149.058-.15.127l-.153 4.764.152 4.378c.002.07.055.127.15.127.097 0 .15-.058.152-.127l.17-4.378-.17-4.764c-.003-.07-.056-.127-.152-.127zm.9-.201c-.104 0-.16.062-.16.134l-.14 4.965.14 4.473c0 .072.057.134.16.134s.16-.062.16-.134l.157-4.473-.157-4.965c0-.072-.057-.134-.16-.134zm.903-.138c-.11 0-.17.066-.17.14l-.13 5.103.13 4.506c0 .075.06.141.17.141s.168-.066.168-.14l.146-4.507-.146-5.103c0-.074-.058-.14-.168-.14zm.9.199c-.118 0-.178.07-.178.148l-.122 4.904.122 4.476c0 .078.06.148.178.148s.177-.07.177-.148l.136-4.476-.136-4.904c0-.078-.06-.148-.177-.148zm.9-.2c-.126 0-.186.074-.186.155l-.115 5.104.115 4.452c0 .081.06.155.186.155s.185-.074.185-.155l.128-4.452-.128-5.104c0-.081-.06-.155-.185-.155zm1.844-.652c-.14 0-.209.082-.209.17l-.104 5.786.104 4.384c0 .088.07.17.21.17.138 0 .208-.082.208-.17l.116-4.384-.116-5.786c0-.088-.07-.17-.209-.17zm.893-.182c-.148 0-.22.086-.22.178l-.098 5.968.098 4.375c0 .092.072.178.22.178.147 0 .219-.086.219-.178l.11-4.375-.11-5.968c0-.092-.072-.178-.22-.178zM13.843 8.003c-.158 0-.232.09-.232.186l-.09 6.192.09 4.343c0 .096.074.186.232.186.157 0 .231-.09.231-.186l.1-4.343-.1-6.192c0-.096-.074-.186-.231-.186zm.9-.086c-.166 0-.243.094-.243.194l-.083 6.278.083 4.303c0 .1.077.194.243.194.165 0 .242-.094.242-.194l.093-4.303-.093-6.278c0-.1-.077-.194-.242-.194zm.9-.094c-.174 0-.254.098-.254.202l-.077 6.372.077 4.258c0 .104.08.202.254.202s.253-.098.253-.202l.086-4.258-.086-6.372c0-.104-.08-.202-.253-.202zm.905.043c-.182 0-.265.102-.265.21l-.07 6.329.07 4.208c0 .109.083.21.265.21.181 0 .264-.101.264-.21l.079-4.208-.079-6.329c0-.108-.083-.21-.264-.21zm.902-.143c-.19 0-.276.106-.276.218l-.064 6.472.064 4.156c0 .112.086.218.276.218s.275-.106.275-.218l.071-4.156-.071-6.472c0-.112-.086-.218-.275-.218zm.9.035c-.198 0-.287.11-.287.226l-.057 6.437.057 4.104c0 .116.089.226.287.226s.286-.11.286-.226l.064-4.104-.064-6.437c0-.116-.088-.226-.286-.226zm1.74-.77c-.398 0-.773.076-1.12.214-.233-2.622-2.434-4.678-5.14-4.678-1.42 0-2.7.572-3.633 1.496a.282.282 0 0 0-.085.204v12.988c.002.113.082.208.192.225a5.712 5.712 0 0 0 .846.035h8.94a3.437 3.437 0 0 0 3.437-3.438 3.437 3.437 0 0 0-3.437-3.437z"/></svg>
