<svg xmlns="http://www.w3.org/2000/svg" viewBox="0 0 192 192" fill="none">
<path d="M141.537 88.988a66.667 66.667 0 0 0-2.518-1.143c-1.482-27.307-16.403-42.94-41.457-43.1h-.398c-15.09 0-27.72 6.51-35.64 18.348l13.763 9.985c5.857-8.87 14.693-11.07 21.877-11.07h.246c8.451.054 14.822 2.508 18.93 7.293 2.99 3.487 4.993 8.34 5.973 14.46a78.882 78.882 0 0 0-20.533-2.517c-23.913 0-39.265 13.725-38.573 34.498.346 10.382 5.272 19.352 13.873 25.263 7.272 5 16.61 7.445 26.29 6.885 12.823-.743 22.87-5.58 29.857-14.373 5.544-6.975 9.075-15.912 10.725-27.203a52.697 52.697 0 0 1 11.89 7.63v.002c5.265 4.26 8.34 9.63 6.272 18.702-5.15 22.59-24.09 39.618-55.397 39.618-34.756 0-61.013-14.286-69.678-42.097-3.818-12.266-4.2-25.524-.79-38.467C40.537 62.462 67.78 42.887 102.073 42.887c15.64 0 30.254 4.04 42.077 13.394l10.84-14.97C140.04 29.792 121.88 24.887 102.073 24.887 60.19 24.887 25.534 49.742 17.135 82.637c-4.382 17.16-3.87 34.642 1.31 50.28C29.554 165.474 61.48 184.113 102.073 184.113c39.618 0 66.7-22.433 73.877-54.958 4.063-18.4-2.468-33.003-14.713-43.073a70.434 70.434 0 0 0-19.7-12.094ZM97.237 143.937c-15.583.893-30.987-7.478-31.68-22.16-.432-9.1 5.618-19.348 25.805-19.348 6.673 0 12.83.95 18.388 2.588-2.198 24.868-10.16 38.127-12.513 38.92Z" fill="#000000"/>
</svg>