<svg viewBox="0 0 24 24" fill="#f300f9" xmlns="http://www.w3.org/2000/svg">
  <path fill-rule="evenodd" d="M2.127 13.66c.678 4.178 4.192 7.648 8.392 8.232a10.456 10.456 0 0 0 5.702-.817c.301-.137.533-.264.514-.282l-1.984-.388c-1.36.32-2.704.537-4.103.303C5.672 19.876 2.1 14.815 3.424 9.85c.518-1.942 1.681-3.712 3.288-4.922 1.703-1.283 3.956-1.964 6.089-1.727 4.14.46 7.506 3.788 7.978 7.907.045.385.081 5.243.081 5.243l.001 4.542 1.103.181.028-5.25c-.028-4.642-.049-5.323-.177-5.869-1.034-4.428-4.97-7.814-9.52-7.95C6.082 1.822 1.133 7.53 2.127 13.66ZM4.42 8.877c-1.624 4.02.21 8.67 4.099 10.504 1.981.936 4.093.93 6.165.354V18.44c-1.915.74-3.97.706-5.807-.2-1.777-.879-3.173-2.571-3.66-4.503a7.123 7.123 0 0 1 1.44-6.285c1.282-1.549 3.351-2.44 5.34-2.438 3.211.002 6.024 2.301 6.817 5.368.169.653.179.907.213 5.432l.037 4.748 1.138.204v-4.52s-.035-4.806-.09-5.261c-.474-3.883-3.886-6.993-7.801-7.158-3.37-.142-6.618 1.899-7.891 5.05Zm2.707-.98c-2.776 3.349-1.336 8.668 2.756 10.092 1.598.555 3.259.433 4.8-.211 0 0-.057-1.3-.061-1.299-1.282.644-2.802.892-4.186.446-1.53-.492-2.81-1.713-3.323-3.243-.47-1.398-.33-2.867.348-4.18.888-1.717 2.94-2.754 4.824-2.657 2.13.11 3.928 1.55 4.636 3.522.191.531.193.573.234 5.185l.04 4.65 1.207.223-.032-4.679c-.03-4.508-.038-4.703-.211-5.33-.726-2.623-3.028-4.575-5.781-4.763-1.97-.134-3.988.72-5.25 2.243Zm.418 3.253c-.484 2.354 1.191 4.785 3.535 5.283 1.273.27 2.487-.13 3.604-.738v-1.637c-.91.822-1.905 1.435-3.196 1.234-1.801-.28-3.03-2.019-2.802-3.79.215-1.66 1.709-2.827 3.317-2.82 1.656.007 2.646 1.089 3.299 2.468l.082 8.726 1.112.213-.133-9.316c-.569-1.916-2.325-3.292-4.356-3.28a4.55 4.55 0 0 0-4.462 3.657Z" clip-rule="evenodd"></path>
</svg>