<?xml version="1.0" encoding="UTF-8"?>
<svg xmlns:xodm="http://www.corel.com/coreldraw/odm/2003" xmlns="http://www.w3.org/2000/svg" xmlns:xlink="http://www.w3.org/1999/xlink" version="1.1" id="Layer_1" x="0px" y="0px" viewBox="0 0 2500 2500" style="enable-background:new 0 0 2500 2500;" xml:space="preserve" fill="#7c00ff">
<style type="text/css">
	.st0{fill:none;}
	.st1{clip-path:url(#SVGID_00000058561280167187071170000007454197110175564964_);}
	.st2{fill:url(#SVGID_00000057111334358073874840000014152717146148383920_);}
	.st3{fill-rule:evenodd;clip-rule:evenodd;fill:#811BC7;}
	.st4{fill-rule:evenodd;clip-rule:evenodd;fill:#7319BC;}
	.st5{fill-rule:evenodd;clip-rule:evenodd;fill:#5312B7;}
	.st6{fill-rule:evenodd;clip-rule:evenodd;fill:#A823D8;}
	.st7{fill-rule:evenodd;clip-rule:evenodd;fill:#791AC4;}
	.st8{fill-rule:evenodd;clip-rule:evenodd;fill:#5710AF;}
	.st9{fill-rule:evenodd;clip-rule:evenodd;fill:#A11FD0;}
	.st10{fill-rule:evenodd;clip-rule:evenodd;fill:#901FCE;}
	.st11{fill-rule:evenodd;clip-rule:evenodd;fill:#D100D2;}
	.st12{fill-rule:evenodd;clip-rule:evenodd;fill:#C02BDC;}
	.st13{fill-rule:evenodd;clip-rule:evenodd;fill:url(#SVGID_00000139977912494915675550000012538762688674025376_);}
</style>
<g id="Layer_x0020_1">
	<g id="_2234425366256">
		<rect class="st0" width="2500" height="2500"></rect>
		<g>
			<defs>
				<path id="SVGID_1_" d="M1791,1214l-320-555L1111,34c-12-21-35-34-59-34s-47,13-59,34L308,1214L31,1697c-6,11-10,23-10,35      c0,37,30,67,67,67h528h1c25,0,47-13,59-35l275-472l43-72c3-3,5-5,5-7c13-17,33-26,54-26c24,0,47,13,59,34l285,493l53,90      c3,5,5,10,7,15c2,6,3,12,3,19c0,38-30,68-68,69H767h-1c-25,0-47,13-59,35l-263,458c-6,10-9,22-9,34c0,38,31,68,68,68h1h1908      c38,0,69-31,69-69c0-12-3-23-8-33l-680-1184L1791,1214z"></path>
			</defs>
			<clipPath id="SVGID_00000078033973596101835250000005482687229217019298_">
				<use xlink:href="#SVGID_1_" style="overflow:visible;"></use>
			</clipPath>
			<g style="clip-path:url(#SVGID_00000078033973596101835250000005482687229217019298_);">
				<g id="_2234425365008">
					
						<linearGradient id="SVGID_00000111179038498013200670000011347718374805770165_" gradientUnits="userSpaceOnUse" x1="21" y1="1249" x2="2481" y2="1249" gradientTransform="matrix(1 0 0 -1 0 2500)">
						<stop offset="0" style="stop-color:#270C84"></stop>
						<stop offset="1" style="stop-color:#3112A1"></stop>
					</linearGradient>
					<path style="fill:url(#SVGID_00000111179038498013200670000011347718374805770165_);" d="M1791,1214l-320-555L1111,34       c-12-21-35-34-59-34s-47,13-59,34L308,1214L31,1697c-6,11-10,23-10,35c0,37,30,67,67,67h528h1c25,0,47-13,59-35l275-472l43-72       c3-3,5-5,5-7c13-17,33-26,54-26c24,0,47,13,59,34l285,493l53,90c3,5,5,10,7,15c2,6,3,12,3,19c0,38-30,68-68,69H767h-1       c-25,0-47,13-59,35l-263,458c-6,10-9,22-9,34c0,38,31,68,68,68h1h1908c38,0,69-31,69-69c0-12-3-23-8-33l-680-1184L1791,1214z"></path>
					<g>
						<path class="st3" d="M152,1473l269-455l179-26l233,336l114,279l196,286l202,187l144,54l324-10l268-91l104-43l56,10l96,173        c-266,203-529,276-860,232c-308-42-477-253-496-273s-130-191-130-191s-140-273-247-378s-254-138-453-88L152,1473z"></path>
						<path class="st4" d="M134,1461l268-454c3-6,9-9,15-10l179-26c8-1,16,3,21,9l233,336c1,2,2,4,3,6l113,276l193,282l197,182        l136,51l317-10l264-90l103-43c4-2,8-2,12-1l56,10c7,1,13,6,16,12l95,172c5,9,3,21-6,28l0,0c-272,205-540,281-876,236        c-296-40-466-232-504-273l-5-6c-20-21-132-194-133-195c0-1-1-1-1-2s-138-270-243-373c-51-50-110-82-181-97        c-72-15-155-10-251,14c-12,3-23-4-26-16c-1-6,0-12,3-17L134,1461z M152,1472l269-455l179-26l233,336l114,279l196,286l202,187        l144,54l324-10l268-91l104-43l56,10l96,173c-266,203-529,276-860,232c-308-42-477-253-496-273s-130-191-130-191        s-140-273-247-378s-254-138-453-88L152,1472z"></path>
						<path class="st5" d="M421,1011l164-283l169-30l195,311l186,185l376,725l577-77l59-11l89,161c-232,223-548,287-847,172        c-256-99-366-362-516-600c0,0-106-226-163-314s-139-219-288-239H421z"></path>
						<path class="st6" d="M402,1000l164-283c3-6,9-9,15-10l0,0l169-30c9-2,18,3,23,11l193,307l185,183c2,2,3,3,4,5l369,712l561-75        l59-11c9-2,18,3,23,11l89,161c5,9,3,20-5,27c-119,114-259,187-408,217s-307,17-460-42c-215-83-329-276-446-475        c-26-44-52-89-80-133c0-1-1-2-1-2c0-1-106-224-162-312l-3-5c-55-85-133-206-270-224c-12-2-20-12-18-24c0-3,1-6,3-8H402z         M421,1011l164-283l169-30l195,311l186,185l376,725l577-77l59-11l89,161c-232,223-548,287-847,172c-256-99-366-362-516-600        c0,0-106-226-163-314s-139-219-288-239H421z"></path>
						<path class="st7" d="M585,728l170-293l289,25l403,966l191,282l287,30l147-31l71,124c0,0-128,138-281,175s-272,48-453-68        c-181-115-450-402-450-402l12-274c-98-227-228-413-387-535L585,728z"></path>
						<path class="st8" d="M567,717l170-293c4-7,12-11,20-11l0,0l289,25c9,1,16,7,18,14l402,962l184,272l274,29l144-30        c10-2,19,3,23,11l70,123c5,9,3,20-4,26c-13,13-139,143-290,180c-79,19-149,31-223,24c-75-8-153-35-247-94        c-184-117-453-404-454-405c-4-5-6-11-6-16l12-268c-49-112-106-214-170-303c-62-86-132-160-208-219c-9-7-11-19-5-28L567,717z         M585,728l170-293l289,25l403,966l191,282l287,30l147-31l71,124c0,0-128,138-281,175s-272,48-453-68c-181-115-450-402-450-402        l12-274c-98-227-228-413-387-535L585,728z"></path>
						<path class="st9" d="M754,435l189-325l313,381l131,306l88,171l478,590l38,8l82,141c0,0-118,111-183,135c-65,25-103,63-270-9        c-166-71-302-397-309-416s-171-385-230-525S908,614,891,592S754,433,754,433V435z"></path>
						<path class="st10" d="M736,424L925,99c6-10,19-14,29-8c3,2,5,4,7,6l312,381c1,2,2,3,3,5l0,0l131,305l87,168l472,582l31,7        c6,1,11,5,14,10l0,0l82,141c5,9,3,20-4,26c-1,1-122,114-190,140c-8,3-16,6-23,10c-57,25-109,47-262-19c-61-26-118-84-166-148        c-89-120-151-267-155-280c-2-7-36-83-78-176c-52-118-118-266-152-347c-56-132-161-262-184-292l-3-3l-1-1        c-20-24-135-156-135-157c-6-7-7-17-2-25l0,0H736z M755,435l189-325l313,381l131,306l88,171l478,590l38,8l82,141        c0,0-118,111-183,135c-65,25-103,63-270-9c-166-71-302-397-309-416s-171-385-230-525S909,614,892,592S755,433,755,433V435z"></path>
						<path class="st11" d="M943,110l46-80c0,0,9-22,46-28s58,16,65,22s7,6,7,6l60,107l823,1429c-70,110-196,149-316,99        c-148-62-190-287-221-427c-24-107-142-488-176-570C1173,417,1122,310,943,110z"></path>
						<path class="st12" d="M925,99l46-80c4-8,20-32,61-39c44-7,70,16,81,26l12,10l61,110l0,0l829,1440l-7,11c-38,59-91,100-151,119        s-127,16-192-11c-151-63-198-277-229-422c-4-20-1-4-5-21c-11-52-46-169-82-286c-37-121-76-239-94-281c-52-125-90-214-138-296        c-47-82-104-158-193-257l-10-12l8-13L925,99z M944,110l46-80c0,0,9-22,46-28s58,16,65,22l7,6l60,107l823,1429        c-70,110-196,149-316,99c-148-62-190-287-221-427c-24-107-142-488-176-570C1174,417,1123,310,944,110z"></path>
					</g>
					
						<linearGradient id="SVGID_00000094581771256161362380000003422540285172368313_" gradientUnits="userSpaceOnUse" x1="962.8701" y1="1550.7863" x2="1993.8701" y2="1658.7863" gradientTransform="matrix(1 0 0 -1 0 2500)">
						<stop offset="0" style="stop-color:#E200DB"></stop>
						<stop offset="1" style="stop-color:#D100D2"></stop>
					</linearGradient>
					<path style="fill-rule:evenodd;clip-rule:evenodd;fill:url(#SVGID_00000094581771256161362380000003422540285172368313_);" d="       M965,129c87-42,311,430,354,565c36,113,98,260,159,430c30,82,64,285,114,359c79,117,179,142,259,133c53-6,159-81,142-51       c-29,54-147,164-318,99c-150-56-190-287-221-427c-24-107-142-488-176-570c-104-251-133-338-313-539V129z"></path>
				</g>
			</g>
		</g>
		<path class="st0" d="M1791,1214l-320-555L1111,34c-12-21-35-34-59-34s-47,13-59,34L308,1214L31,1697c-6,11-10,23-10,35    c0,37,30,67,67,67h528h1c25,0,47-13,59-35l275-472l43-72c3-3,5-5,5-7c13-17,33-26,54-26c24,0,47,13,59,34l285,493l53,90    c3,5,5,10,7,15c2,6,3,12,3,19c0,38-30,68-68,69H767h-1c-25,0-47,13-59,35l-263,458c-6,10-9,22-9,34c0,38,31,68,68,68h1h1908    c38,0,69-31,69-69c0-12-3-23-8-33l-680-1184L1791,1214z"></path>
	</g>
</g>
</svg>
