<svg xmlns="http://www.w3.org/2000/svg"  viewBox="0 0 50 50" width="100px" height="100px" fill="#00ffff"><path d="M 25 2 C 12.317 2 2 12.318 2 25 C 2 37.682 12.317 48 25 48 C 37.683 48 48 37.682 48 25 C 48 12.318 37.683 2 25 2 z M 25 4.5 C 36.304 4.5 45.5 13.696 45.5 25 C 45.5 36.304 36.304 45.5 25 45.5 C 13.696 45.5 4.5 36.304 4.5 25 C 4.5 13.696 13.696 4.5 25 4.5 z M 25 6.5 C 14.799 6.5 6.5 14.799 6.5 25 C 6.5 35.201 14.799 43.5 25 43.5 C 35.201 43.5 43.5 35.201 43.5 25 C 43.5 14.799 35.201 6.5 25 6.5 z M 22.619141 12.003906 L 27.837891 12.003906 C 31.598891 12.269906 33.200578 14.159781 32.642578 17.675781 C 31.625578 21.669781 27.730469 23.068359 27.730469 23.068359 C 30.780469 23.690359 31.959578 25.669813 31.267578 29.007812 C 29.693578 33.414813 26.415297 35.777922 21.404297 36.044922 L 18.126953 36.044922 L 17.537109 36.044922 C 16.153109 36.044922 15.03125 34.913531 15.03125 33.519531 C 15.06125 33.185531 15.117266 32.853344 15.197266 32.527344 C 15.222266 32.338344 16.464141 27.930047 16.869141 26.498047 L 21.53125 26.498047 C 21.23225 27.427047 21.233828 28.824922 21.923828 30.169922 C 22.996828 32.271922 24.977719 33.014484 26.386719 32.271484 C 27.795719 31.529484 28.048562 29.617484 26.976562 27.521484 C 26.022562 25.658484 24.25 25 23 25 L 17.263672 25 L 19.845703 16.5 L 23.566406 16.5 C 23.345406 17.195 23.471297 17.989281 23.904297 18.863281 C 24.706297 20.455281 26.122594 21.044906 27.183594 20.503906 C 28.244594 19.963906 28.544187 18.502297 27.742188 16.904297 C 27.086188 15.583297 25.956 15.020719 25 15.011719 L 25 15 L 20.189453 15 L 20.591797 13.566406 C 20.784797 12.607406 21.650141 11.939906 22.619141 12.003906 z"/></svg>