<svg width="100" height="100" viewBox="0 0 100 100" fill="none" xmlns="http://www.w3.org/2000/svg">
<path d="M0 48C0 25.37 0 14.06 7.03 7.03C14.06 0 25.37 0 48 0L52 0C74.63 0 85.94 0 92.97 7.03C100 14.06 100 25.37 100 48V52C100 74.63 100 85.94 92.97 92.97C85.94 100 74.63 100 52 100H48C25.37 100 14.06 100 7.03 92.97C0 85.94 0 74.63 0 52L0 48Z" fill="#0077FF"/>
<path d="M0 52C0 74.63 0 85.94 7.03 92.97C14.06 100 25.37 100 48 100H52C74.63 100 85.94 100 92.97 92.97C100 85.94 100 74.63 100 52V48C100 43.79 100 39.97 99.95 36.5C99.3 36 98.52 35.38 97.64 34.66C91.37 29.58 79.54 20 66 20C56.9 20 49.63 25 41.46 30.62C31.01 37.8 19.09 46 0 46C0 46.66 0 47.32 0 48L0 52Z" fill="#F45FFF"/>
<path d="M77.5 50.98C77.5 48.51 79.53 46.5 82 46.5C84.47 46.5 86.5 48.5 86.5 50.98V69.03C86.5 71.5 84.47 73.5 82 73.5C79.53 73.5 77.5 71.5 77.5 69.03V50.98Z" fill="white"/>
<path d="M61.5 39.48C61.5 37.01 63.53 35 66 35C68.47 35 70.5 37 70.5 39.48V80.53C70.5 83 68.47 85 66 85C63.53 85 61.5 83 61.5 80.53L61.5 39.48Z" fill="white"/>
<path d="M45.5 50.97C45.5 48.5 47.53 46.5 50 46.5C52.47 46.5 54.5 48.5 54.5 50.97V69.02C54.5 71.49 52.47 73.49 50 73.49C47.53 73.49 45.5 71.49 45.5 69.02V50.97Z" fill="white"/>
<path d="M29.5 57.47C29.5 55 31.53 53 34 53C36.47 53 38.5 55 38.5 57.47V62.52C38.5 64.99 36.47 67 34 67C31.53 67 29.5 65 29.5 62.52V57.47Z" fill="white"/>
<path d="M13.5 57.47C13.5 55 15.53 53 18 53C20.47 53 22.5 55 22.5 57.47V62.52C22.5 64.99 20.47 67 18 67C15.53 67 13.5 65 13.5 62.52L13.5 57.47Z" fill="white"/>
</svg>
